<?xml version="1.0" encoding="UTF-8"?>
<svg id="Layer_2" data-name="Layer 2" xmlns="http://www.w3.org/2000/svg" viewBox="0 0 1067.6 156.93">
  <defs>
    <style>
      .cls-1 {
        fill: #fff;
      }
    </style>
  </defs>
  <g id="Layer_1-2" data-name="Layer 1">
    <g>
      <g>
        <path class="cls-1" d="M36.62.62c3.25,0,5.12,1.88,5.12,5.12v3.75c0,3.25-1.88,5.12-5.12,5.12h-18.12v24.25h13.38c3.25,0,5.12,1.88,5.12,5.12v3.75c0,3.25-1.88,5.12-5.12,5.12h-13.38v33.12c0,3.25-1.88,5.12-5.12,5.12H5.12c-3.25,0-5.12-1.88-5.12-5.12V5.75C0,2.5,1.88.62,5.12.62h31.5Z"/>
        <path class="cls-1" d="M79.37,86.62l-1.5-12.5h-15l-1.5,12.5c-.38,3.5-2.75,4.5-5.12,4.5h-7.5c-3.75,0-5.62-2.62-5-6.38L55.75,5.5c.5-3.62,2.38-4.88,5.25-4.88h18.75c2.88,0,4.75,1.25,5.25,4.88l12,79.25c.62,3.75-1.25,6.38-5,6.38h-7.5c-2.38,0-4.75-1-5.12-4.5ZM64.5,60.12h11.62l-1.62-14.25-3.5-33.38h-1.25l-3.5,33.38-1.75,14.25Z"/>
        <path class="cls-1" d="M144.37,5.75c0-3.25,1.88-5.12,5.12-5.12h7c3.25,0,5.12,1.88,5.12,5.12v80.25c0,3.25-1.88,5.12-5.12,5.12h-8.38c-3.12,0-4.38-1.62-5.12-3.75l-9.38-27-6.12-21.75-1.25.25,1.88,22.38v24.75c0,3.25-1.88,5.12-5.12,5.12h-7c-3.25,0-5.12-1.88-5.12-5.12V5.75c0-3.25,1.88-5.12,5.12-5.12h8.38c3.12,0,4.38,1.62,5.12,3.75l9.38,27,6.12,21.75,1.25-.25-1.88-22.38V5.75Z"/>
        <path class="cls-1" d="M209.62,14.62v71.38c0,3.25-1.88,5.12-5.12,5.12h-8.25c-3.25,0-5.12-1.88-5.12-5.12V14.62h-11.88c-3.25,0-5.12-1.88-5.12-5.12v-3.75c0-3.25,1.88-5.12,5.12-5.12h42.25c3.25,0,5.12,1.88,5.12,5.12v3.75c0,3.25-1.88,5.12-5.12,5.12h-11.88Z"/>
        <path class="cls-1" d="M264.87,86.62l-1.5-12.5h-15l-1.5,12.5c-.38,3.5-2.75,4.5-5.12,4.5h-7.5c-3.75,0-5.62-2.62-5-6.38l12-79.25c.5-3.62,2.38-4.88,5.25-4.88h18.75c2.88,0,4.75,1.25,5.25,4.88l12,79.25c.62,3.75-1.25,6.38-5,6.38h-7.5c-2.38,0-4.75-1-5.12-4.5ZM250,60.12h11.62l-1.62-14.25-3.5-33.38h-1.25l-3.5,33.38-1.75,14.25Z"/>
        <path class="cls-1" d="M319.74,34l14.62,12.38c9,7.62,10.25,13.88,10.25,25.5,0,13.62-8.62,19.88-24.75,19.88s-24.75-6.25-24.75-19.88v-8.88c0-3.25,1.88-5.12,5.12-5.12h8.25c3.25,0,5.12,1.88,5.12,5.12v8.88c0,3.38,2.12,5.88,6.25,5.88s6.25-2.5,6.25-5.88c0-6.5-1-9.88-6.12-14.12l-14.63-12.38c-9-7.62-10.25-13.88-10.25-25.5,0-13.62,8.62-19.88,24.75-19.88s24.75,6.25,24.75,19.88v8.88c0,3.25-1.88,5.12-5.12,5.12h-8.25c-3.25,0-5.12-1.88-5.12-5.12v-8.88c0-3.38-2.12-5.88-6.25-5.88s-6.25,2.5-6.25,5.88c0,6.5,1,9.88,6.13,14.12Z"/>
        <path class="cls-1" d="M369.87.62c2,0,4.25.88,5,3.5l5,19.75,3,17.88h1.25l3-17.88,5-19.75c.75-2.62,3-3.5,5-3.5h7.5c4.62,0,5.88,3.75,4.75,7.25l-16.62,52.12v26c0,3.25-1.88,5.12-5.12,5.12h-8.25c-3.25,0-5.12-1.88-5.12-5.12v-26l-16.62-52.12c-1.12-3.5.12-7.25,4.75-7.25h7.5Z"/>
        <path class="cls-1" d="M483.24,34l14.62,12.38c9,7.62,10.25,13.88,10.25,25.5,0,13.62-8.62,19.88-24.75,19.88s-24.75-6.25-24.75-19.88v-8.88c0-3.25,1.88-5.12,5.12-5.12h8.25c3.25,0,5.12,1.88,5.12,5.12v8.88c0,3.38,2.12,5.88,6.25,5.88s6.25-2.5,6.25-5.88c0-6.5-1-9.88-6.12-14.12l-14.62-12.38c-9-7.62-10.25-13.88-10.25-25.5,0-13.62,8.62-19.88,24.75-19.88s24.75,6.25,24.75,19.88v8.88c0,3.25-1.88,5.12-5.12,5.12h-8.25c-3.25,0-5.12-1.88-5.12-5.12v-8.88c0-3.38-2.12-5.88-6.25-5.88s-6.25,2.5-6.25,5.88c0,6.5,1,9.88,6.12,14.12Z"/>
        <path class="cls-1" d="M542.86,59.88v26.12c0,3.25-1.88,5.12-5.12,5.12h-8.25c-3.25,0-5.12-1.88-5.12-5.12V5.75c0-3.25,1.88-5.12,5.12-5.12h18.38c16.12,0,24.75,6.25,24.75,19.88v19.5c0,13.62-8.62,19.88-24.75,19.88h-5ZM547.86,45.88c4.12,0,6.25-2.5,6.25-5.88v-19.5c0-3.38-2.12-5.88-6.25-5.88h-5v31.25h5Z"/>
        <path class="cls-1" d="M637.11,19.88v52c0,13.62-8.62,19.88-24.75,19.88s-24.75-6.25-24.75-19.88V19.88c0-13.62,8.62-19.88,24.75-19.88s24.75,6.25,24.75,19.88ZM606.11,19.88v52c0,3.38,2.12,5.88,6.25,5.88s6.25-2.5,6.25-5.88V19.88c0-3.38-2.12-5.88-6.25-5.88s-6.25,2.5-6.25,5.88Z"/>
        <path class="cls-1" d="M694.98,53.5l11.38,30.25c1,2.62.38,7.38-4.75,7.38h-8.62c-2.62,0-4.25-1.25-5-3.38l-11.12-31.25h-3.75v29.5c0,3.25-1.88,5.12-5.12,5.12h-8.25c-3.25,0-5.12-1.88-5.12-5.12V5.75c0-3.25,1.88-5.12,5.12-5.12h19.62c16.12,0,24.75,6.25,24.75,19.88v16.12c0,8.25-3.12,13.75-9.12,16.88ZM679.36,42.5c4.12,0,6.25-2.5,6.25-5.88v-16.12c0-3.38-2.12-5.88-6.25-5.88h-6.25v27.88h6.25Z"/>
        <path class="cls-1" d="M748.36,14.62v71.38c0,3.25-1.88,5.12-5.12,5.12h-8.25c-3.25,0-5.12-1.88-5.12-5.12V14.62h-11.88c-3.25,0-5.12-1.88-5.12-5.12v-3.75c0-3.25,1.88-5.12,5.12-5.12h42.25c3.25,0,5.12,1.88,5.12,5.12v3.75c0,3.25-1.88,5.12-5.12,5.12h-11.88Z"/>
        <path class="cls-1" d="M801.23,34l14.62,12.38c9,7.62,10.25,13.88,10.25,25.5,0,13.62-8.62,19.88-24.75,19.88s-24.75-6.25-24.75-19.88v-8.88c0-3.25,1.88-5.12,5.12-5.12h8.25c3.25,0,5.12,1.88,5.12,5.12v8.88c0,3.38,2.12,5.88,6.25,5.88s6.25-2.5,6.25-5.88c0-6.5-1-9.88-6.12-14.12l-14.62-12.38c-9-7.62-10.25-13.88-10.25-25.5,0-13.62,8.62-19.88,24.75-19.88s24.75,6.25,24.75,19.88v8.88c0,3.25-1.88,5.12-5.12,5.12h-8.25c-3.25,0-5.12-1.88-5.12-5.12v-8.88c0-3.38-2.12-5.88-6.25-5.88s-6.25,2.5-6.25,5.88c0,6.5,1,9.88,6.12,14.12Z"/>
        <path class="cls-1" d="M847.48,91.12c-3.25,0-5.12-1.88-5.12-5.12V5.75c0-3.25,1.88-5.12,5.12-5.12h18.38c16.12,0,24.75,6.25,24.75,19.88v6.88c0,9.25-4,15.12-11.5,17.88v1.25c7.5,2.88,11.5,8.75,11.5,17.88v6.88c0,13.62-8.62,19.88-24.75,19.88h-18.38ZM865.85,38.88c4.12,0,6.25-2.5,6.25-5.88v-12.5c0-3.38-2.12-5.88-6.25-5.88h-5v24.25h5ZM865.85,77.12c4.12,0,6.25-2.5,6.25-5.88v-12.5c0-3.38-2.12-5.88-6.25-5.88h-5v24.25h5Z"/>
        <path class="cls-1" d="M939.48,86.62l-1.5-12.5h-15l-1.5,12.5c-.38,3.5-2.75,4.5-5.12,4.5h-7.5c-3.75,0-5.62-2.62-5-6.38l12-79.25c.5-3.62,2.38-4.88,5.25-4.88h18.75c2.88,0,4.75,1.25,5.25,4.88l12,79.25c.62,3.75-1.25,6.38-5,6.38h-7.5c-2.38,0-4.75-1-5.12-4.5ZM924.6,60.12h11.62l-1.62-14.25-3.5-33.38h-1.25l-3.5,33.38-1.75,14.25Z"/>
        <path class="cls-1" d="M989.48,77.12h18.12c3.25,0,5.12,1.88,5.12,5.12v3.75c0,3.25-1.88,5.12-5.12,5.12h-31.5c-3.25,0-5.12-1.88-5.12-5.12V5.75c0-3.25,1.88-5.12,5.12-5.12h8.25c3.25,0,5.12,1.88,5.12,5.12v71.38Z"/>
        <path class="cls-1" d="M1044.35,77.12h18.12c3.25,0,5.12,1.88,5.12,5.12v3.75c0,3.25-1.88,5.12-5.12,5.12h-31.5c-3.25,0-5.12-1.88-5.12-5.12V5.75c0-3.25,1.88-5.12,5.12-5.12h8.25c3.25,0,5.12,1.88,5.12,5.12v71.38Z"/>
      </g>
      <g>
        <path class="cls-1" d="M14.9,155l-.56-4.7h-5.64l-.56,4.7c-.14,1.32-1.03,1.69-1.93,1.69h-2.82c-1.41,0-2.11-.99-1.88-2.4l4.51-29.78c.19-1.36.89-1.83,1.97-1.83h7.04c1.08,0,1.78.47,1.97,1.83l4.51,29.78c.23,1.41-.47,2.4-1.88,2.4h-2.82c-.89,0-1.78-.38-1.93-1.69ZM9.32,145.05h4.37l-.61-5.35-1.31-12.54h-.47l-1.31,12.54-.66,5.35Z"/>
        <path class="cls-1" d="M47.31,124.62c0-1.22.7-1.93,1.93-1.93h2.63c1.22,0,1.93.7,1.93,1.93v30.15c0,1.22-.7,1.93-1.93,1.93h-3.15c-1.17,0-1.64-.61-1.93-1.41l-3.52-10.14-2.3-8.17-.47.09.7,8.41v9.3c0,1.22-.7,1.93-1.93,1.93h-2.63c-1.22,0-1.93-.7-1.93-1.93v-30.15c0-1.22.7-1.93,1.93-1.93h3.15c1.17,0,1.64.61,1.93,1.41l3.52,10.14,2.3,8.17.47-.09-.7-8.41v-9.3Z"/>
        <path class="cls-1" d="M71.31,122.69c1.22,0,1.93.7,1.93,1.93v1.41c0,1.22-.7,1.93-1.93,1.93h-6.81v9.11h5.03c1.22,0,1.93.7,1.93,1.93v1.41c0,1.22-.7,1.93-1.93,1.93h-5.03v9.11h6.81c1.22,0,1.93.7,1.93,1.93v1.41c0,1.22-.7,1.93-1.93,1.93h-11.84c-1.22,0-1.93-.7-1.93-1.93v-30.15c0-1.22.7-1.93,1.93-1.93h11.84Z"/>
        <path class="cls-1" d="M80.37,124.38l1.36,16.25.61,10.19h.47l.38-10.19,1.36-16.25c.09-1.31,1.03-1.69,1.93-1.69h4.7c.89,0,1.83.38,1.93,1.69l1.36,16.25.38,10.19h.47l.61-10.19,1.36-16.25c.09-1.31,1.03-1.69,1.93-1.69h2.35c1.41,0,2.02.99,1.88,2.4l-3.33,29.78c-.14,1.36-.89,1.83-1.97,1.83h-5.64c-1.08,0-1.88-.47-1.97-1.83l-1.13-16.11-.33-8.78h-.47l-.33,8.78-1.13,16.11c-.09,1.36-.89,1.83-1.97,1.83h-5.64c-1.08,0-1.83-.47-1.97-1.83l-3.33-29.78c-.14-1.41.47-2.4,1.88-2.4h2.35c.89,0,1.83.38,1.93,1.69Z"/>
        <path class="cls-1" d="M135.23,134.67c0,1.22-.7,1.93-1.93,1.93h-3.1c-1.22,0-1.93-.7-1.93-1.93v-4.74c0-1.27-.8-2.21-2.35-2.21s-2.35.94-2.35,2.21v19.54c0,1.27.8,2.21,2.35,2.21s2.35-.94,2.35-2.21v-4.74c0-1.22.7-1.93,1.93-1.93h3.1c1.22,0,1.93.7,1.93,1.93v4.74c0,5.12-3.24,7.47-9.3,7.47s-9.3-2.35-9.3-7.47v-19.54c0-5.12,3.24-7.47,9.3-7.47s9.3,2.35,9.3,7.47v4.74Z"/>
        <path class="cls-1" d="M151.01,155l-.56-4.7h-5.64l-.56,4.7c-.14,1.32-1.03,1.69-1.93,1.69h-2.82c-1.41,0-2.11-.99-1.88-2.4l4.51-29.78c.19-1.36.89-1.83,1.97-1.83h7.04c1.08,0,1.78.47,1.97,1.83l4.51,29.78c.23,1.41-.47,2.4-1.88,2.4h-2.82c-.89,0-1.78-.38-1.93-1.69ZM145.42,145.05h4.37l-.61-5.35-1.31-12.54h-.47l-1.31,12.54-.66,5.35Z"/>
        <path class="cls-1" d="M175.19,142.56l4.27,11.37c.38.99.14,2.77-1.78,2.77h-3.24c-.99,0-1.6-.47-1.88-1.27l-4.18-11.74h-1.41v11.08c0,1.22-.7,1.93-1.93,1.93h-3.1c-1.22,0-1.93-.7-1.93-1.93v-30.15c0-1.22.7-1.93,1.93-1.93h7.37c6.06,0,9.3,2.35,9.3,7.47v6.06c0,3.1-1.17,5.17-3.43,6.34ZM169.32,138.42c1.55,0,2.35-.94,2.35-2.21v-6.06c0-1.27-.8-2.21-2.35-2.21h-2.35v10.47h2.35Z"/>
        <path class="cls-1" d="M184.3,156.69c-1.22,0-1.93-.7-1.93-1.93v-30.15c0-1.22.7-1.93,1.93-1.93h7.37c6.06,0,9.3,2.35,9.3,7.47v19.07c0,5.12-3.24,7.47-9.3,7.47h-7.37ZM191.68,151.43c1.55,0,2.35-.94,2.35-2.21v-19.07c0-1.27-.8-2.21-2.35-2.21h-2.35v23.48h2.35Z"/>
        <path class="cls-1" d="M232.21,138.61c1.22,0,1.93.7,1.93,1.93v8.92c0,5.12-3.24,7.47-9.3,7.47s-9.3-2.35-9.3-7.47v-19.54c0-5.12,3.24-7.47,9.3-7.47s9.3,2.35,9.3,7.47v2.87c0,1.22-.7,1.93-1.93,1.93h-3.1c-1.22,0-1.93-.7-1.93-1.93v-2.87c0-1.27-.8-2.21-2.35-2.21s-2.35.94-2.35,2.21v19.54c0,1.27.8,2.21,2.35,2.21s2.35-.94,2.35-2.21v-5.59h-.42c-1.22,0-1.93-.7-1.93-1.93v-1.41c0-1.22.7-1.93,1.93-1.93h5.45Z"/>
        <path class="cls-1" d="M249.91,155l-.56-4.7h-5.64l-.56,4.7c-.14,1.32-1.03,1.69-1.93,1.69h-2.82c-1.41,0-2.11-.99-1.88-2.4l4.51-29.78c.19-1.36.89-1.83,1.97-1.83h7.04c1.08,0,1.78.47,1.97,1.83l4.51,29.78c.23,1.41-.47,2.4-1.88,2.4h-2.82c-.89,0-1.78-.38-1.93-1.69ZM244.32,145.05h4.37l-.61-5.35-1.31-12.54h-.47l-1.31,12.54-.66,5.35Z"/>
        <path class="cls-1" d="M269.45,150.49c-1.13,0-1.74-.61-1.88-1.41l-2.63-15.59h-.47l.47,6.58v14.7c0,1.22-.7,1.93-1.93,1.93h-2.16c-1.22,0-1.93-.7-1.93-1.93v-30.15c0-1.27.75-1.93,1.93-1.93h5.21c1.22,0,1.78.61,1.97,1.83l1.74,8.36,1.08,8.08h.47l1.08-8.08,1.74-8.36c.19-1.22.75-1.83,1.97-1.83h5.21c1.17,0,1.93.66,1.93,1.93v30.15c0,1.22-.7,1.93-1.93,1.93h-2.16c-1.22,0-1.93-.7-1.93-1.93v-14.7l.47-6.58h-.47l-2.63,15.59c-.14.8-.75,1.41-1.88,1.41h-3.29Z"/>
        <path class="cls-1" d="M300.77,122.69c1.22,0,1.93.7,1.93,1.93v1.41c0,1.22-.7,1.93-1.93,1.93h-6.81v9.11h5.03c1.22,0,1.93.7,1.93,1.93v1.41c0,1.22-.7,1.93-1.93,1.93h-5.03v9.11h6.81c1.22,0,1.93.7,1.93,1.93v1.41c0,1.22-.7,1.93-1.93,1.93h-11.84c-1.22,0-1.93-.7-1.93-1.93v-30.15c0-1.22.7-1.93,1.93-1.93h11.84Z"/>
        <path class="cls-1" d="M329.61,122.69c1.22,0,1.93.7,1.93,1.93v1.41c0,1.22-.71,1.93-1.93,1.93h-6.81v9.11h5.03c1.22,0,1.93.7,1.93,1.93v1.41c0,1.22-.7,1.93-1.93,1.93h-5.03v12.45c0,1.22-.7,1.93-1.93,1.93h-3.1c-1.22,0-1.93-.7-1.93-1.93v-30.15c0-1.22.7-1.93,1.93-1.93h11.84Z"/>
        <path class="cls-1" d="M352.25,129.92v19.54c0,5.12-3.24,7.47-9.3,7.47s-9.3-2.35-9.3-7.47v-19.54c0-5.12,3.24-7.47,9.3-7.47s9.3,2.35,9.3,7.47ZM340.6,129.92v19.54c0,1.27.8,2.21,2.35,2.21s2.35-.94,2.35-2.21v-19.54c0-1.27-.8-2.21-2.35-2.21s-2.35.94-2.35,2.21Z"/>
        <path class="cls-1" d="M371.17,142.56l4.27,11.37c.38.99.14,2.77-1.79,2.77h-3.24c-.99,0-1.6-.47-1.88-1.27l-4.18-11.74h-1.41v11.08c0,1.22-.71,1.93-1.93,1.93h-3.1c-1.22,0-1.93-.7-1.93-1.93v-30.15c0-1.22.7-1.93,1.93-1.93h7.37c6.06,0,9.3,2.35,9.3,7.47v6.06c0,3.1-1.17,5.17-3.43,6.34ZM365.3,138.42c1.55,0,2.35-.94,2.35-2.21v-6.06c0-1.27-.8-2.21-2.35-2.21h-2.35v10.47h2.35Z"/>
        <path class="cls-1" d="M392.54,122.69c.75,0,1.6.33,1.88,1.31l1.88,7.42,1.13,6.72h.47l1.13-6.72,1.88-7.42c.28-.99,1.13-1.31,1.88-1.31h2.82c1.74,0,2.21,1.41,1.78,2.72l-6.25,19.58v9.77c0,1.22-.71,1.93-1.93,1.93h-3.1c-1.22,0-1.93-.7-1.93-1.93v-9.77l-6.25-19.58c-.42-1.31.05-2.72,1.79-2.72h2.82Z"/>
        <path class="cls-1" d="M428.51,129.92v19.54c0,5.12-3.24,7.47-9.3,7.47s-9.3-2.35-9.3-7.47v-19.54c0-5.12,3.24-7.47,9.3-7.47s9.3,2.35,9.3,7.47ZM416.87,129.92v19.54c0,1.27.8,2.21,2.35,2.21s2.35-.94,2.35-2.21v-19.54c0-1.27-.8-2.21-2.35-2.21s-2.35.94-2.35,2.21Z"/>
        <path class="cls-1" d="M432.27,124.62c0-1.22.7-1.93,1.93-1.93h3.1c1.22,0,1.93.7,1.93,1.93v24.85c0,1.27.8,2.21,2.35,2.21s2.35-.94,2.35-2.21v-24.85c0-1.22.7-1.93,1.93-1.93h3.1c1.22,0,1.93.7,1.93,1.93v24.85c0,5.12-3.24,7.47-9.3,7.47s-9.3-2.35-9.3-7.47v-24.85Z"/>
        <path class="cls-1" d="M469.8,142.56l4.27,11.37c.38.99.14,2.77-1.79,2.77h-3.24c-.99,0-1.6-.47-1.88-1.27l-4.18-11.74h-1.41v11.08c0,1.22-.71,1.93-1.93,1.93h-3.1c-1.22,0-1.93-.7-1.93-1.93v-30.15c0-1.22.7-1.93,1.93-1.93h7.37c6.06,0,9.3,2.35,9.3,7.47v6.06c0,3.1-1.17,5.17-3.43,6.34ZM463.92,138.42c1.55,0,2.35-.94,2.35-2.21v-6.06c0-1.27-.8-2.21-2.35-2.21h-2.35v10.47h2.35Z"/>
        <path class="cls-1" d="M501.54,122.69c1.22,0,1.93.7,1.93,1.93v1.41c0,1.22-.7,1.93-1.93,1.93h-6.81v9.11h5.03c1.22,0,1.93.7,1.93,1.93v1.41c0,1.22-.71,1.93-1.93,1.93h-5.03v12.45c0,1.22-.71,1.93-1.93,1.93h-3.1c-1.22,0-1.93-.7-1.93-1.93v-30.15c0-1.22.7-1.93,1.93-1.93h11.83Z"/>
        <path class="cls-1" d="M520.75,142.56l4.27,11.37c.38.99.14,2.77-1.79,2.77h-3.24c-.99,0-1.6-.47-1.88-1.27l-4.18-11.74h-1.41v11.08c0,1.22-.71,1.93-1.93,1.93h-3.1c-1.22,0-1.93-.7-1.93-1.93v-30.15c0-1.22.7-1.93,1.93-1.93h7.37c6.06,0,9.3,2.35,9.3,7.47v6.06c0,3.1-1.17,5.17-3.43,6.34ZM514.88,138.42c1.55,0,2.35-.94,2.35-2.21v-6.06c0-1.27-.8-2.21-2.35-2.21h-2.35v10.47h2.35Z"/>
        <path class="cls-1" d="M534.89,154.77c0,1.22-.71,1.93-1.93,1.93h-3.1c-1.22,0-1.93-.7-1.93-1.93v-30.15c0-1.22.7-1.93,1.93-1.93h3.1c1.22,0,1.93.7,1.93,1.93v30.15Z"/>
        <path class="cls-1" d="M552.4,122.69c1.22,0,1.93.7,1.93,1.93v1.41c0,1.22-.7,1.93-1.93,1.93h-6.81v9.11h5.03c1.22,0,1.92.7,1.92,1.93v1.41c0,1.22-.7,1.93-1.92,1.93h-5.03v9.11h6.81c1.22,0,1.93.7,1.93,1.93v1.41c0,1.22-.7,1.93-1.93,1.93h-11.83c-1.22,0-1.93-.7-1.93-1.93v-30.15c0-1.22.7-1.93,1.93-1.93h11.83Z"/>
        <path class="cls-1" d="M569.26,124.62c0-1.22.7-1.93,1.93-1.93h2.63c1.22,0,1.93.7,1.93,1.93v30.15c0,1.22-.71,1.93-1.93,1.93h-3.15c-1.17,0-1.64-.61-1.93-1.41l-3.52-10.14-2.3-8.17-.47.09.71,8.41v9.3c0,1.22-.71,1.93-1.93,1.93h-2.63c-1.22,0-1.93-.7-1.93-1.93v-30.15c0-1.22.7-1.93,1.93-1.93h3.15c1.17,0,1.64.61,1.93,1.41l3.52,10.14,2.3,8.17.47-.09-.7-8.41v-9.3Z"/>
        <path class="cls-1" d="M581.43,156.69c-1.22,0-1.93-.7-1.93-1.93v-30.15c0-1.22.7-1.93,1.93-1.93h7.37c6.06,0,9.3,2.35,9.3,7.47v19.07c0,5.12-3.24,7.47-9.3,7.47h-7.37ZM588.8,151.43c1.55,0,2.35-.94,2.35-2.21v-19.07c0-1.27-.8-2.21-2.35-2.21h-2.35v23.48h2.35Z"/>
        <path class="cls-1" d="M610.64,135.23l5.5,4.65c3.38,2.86,3.85,5.21,3.85,9.58,0,5.12-3.24,7.47-9.3,7.47s-9.3-2.35-9.3-7.47v-3.33c0-1.22.7-1.93,1.93-1.93h3.1c1.22,0,1.93.7,1.93,1.93v3.33c0,1.27.8,2.21,2.35,2.21s2.35-.94,2.35-2.21c0-2.44-.38-3.71-2.3-5.31l-5.49-4.65c-3.38-2.86-3.85-5.21-3.85-9.58,0-5.12,3.24-7.47,9.3-7.47s9.3,2.35,9.3,7.47v3.33c0,1.22-.7,1.93-1.93,1.93h-3.1c-1.22,0-1.93-.7-1.93-1.93v-3.33c0-1.27-.8-2.21-2.35-2.21s-2.35.94-2.35,2.21c0,2.44.38,3.71,2.3,5.31Z"/>
        <path class="cls-1" d="M638.86,124.38l1.36,16.25.61,10.19h.47l.38-10.19,1.36-16.25c.09-1.31,1.03-1.69,1.92-1.69h4.7c.89,0,1.83.38,1.93,1.69l1.36,16.25.38,10.19h.47l.61-10.19,1.36-16.25c.09-1.31,1.03-1.69,1.93-1.69h2.35c1.41,0,2.02.99,1.88,2.4l-3.33,29.78c-.14,1.36-.89,1.83-1.97,1.83h-5.64c-1.08,0-1.88-.47-1.97-1.83l-1.13-16.11-.33-8.78h-.47l-.33,8.78-1.13,16.11c-.09,1.36-.89,1.83-1.97,1.83h-5.64c-1.08,0-1.83-.47-1.97-1.83l-3.33-29.78c-.14-1.41.47-2.4,1.88-2.4h2.35c.89,0,1.83.38,1.93,1.69Z"/>
        <path class="cls-1" d="M671.27,137.06h4.7v-12.45c0-1.22.7-1.93,1.93-1.93h3.1c1.22,0,1.93.7,1.93,1.93v30.15c0,1.22-.71,1.93-1.93,1.93h-3.1c-1.22,0-1.93-.7-1.93-1.93v-12.45h-4.7v12.45c0,1.22-.71,1.93-1.93,1.93h-3.1c-1.22,0-1.93-.7-1.93-1.93v-30.15c0-1.22.7-1.93,1.93-1.93h3.1c1.22,0,1.93.7,1.93,1.93v12.45Z"/>
        <path class="cls-1" d="M705.27,129.92v19.54c0,5.12-3.24,7.47-9.3,7.47s-9.3-2.35-9.3-7.47v-19.54c0-5.12,3.24-7.47,9.3-7.47s9.3,2.35,9.3,7.47ZM693.62,129.92v19.54c0,1.27.8,2.21,2.35,2.21s2.35-.94,2.35-2.21v-19.54c0-1.27-.8-2.21-2.35-2.21s-2.35.94-2.35,2.21Z"/>
        <path class="cls-1" d="M721.76,156.69c-1.22,0-1.93-.7-1.93-1.93v-30.15c0-1.22.7-1.93,1.93-1.93h7.37c6.06,0,9.3,2.35,9.3,7.47v19.07c0,5.12-3.24,7.47-9.3,7.47h-7.37ZM729.13,151.43c1.55,0,2.35-.94,2.35-2.21v-19.07c0-1.27-.8-2.21-2.35-2.21h-2.35v23.48h2.35Z"/>
        <path class="cls-1" d="M760.78,129.92v19.54c0,5.12-3.24,7.47-9.3,7.47s-9.3-2.35-9.3-7.47v-19.54c0-5.12,3.24-7.47,9.3-7.47s9.3,2.35,9.3,7.47ZM749.14,129.92v19.54c0,1.27.8,2.21,2.35,2.21s2.35-.94,2.35-2.21v-19.54c0-1.27-.8-2.21-2.35-2.21s-2.35.94-2.35,2.21Z"/>
        <path class="cls-1" d="M777.13,124.62c0-1.22.7-1.93,1.93-1.93h2.63c1.22,0,1.93.7,1.93,1.93v30.15c0,1.22-.71,1.93-1.93,1.93h-3.15c-1.17,0-1.64-.61-1.93-1.41l-3.52-10.14-2.3-8.17-.47.09.71,8.41v9.3c0,1.22-.71,1.93-1.93,1.93h-2.63c-1.22,0-1.93-.7-1.93-1.93v-30.15c0-1.22.7-1.93,1.93-1.93h3.15c1.17,0,1.64.61,1.93,1.41l3.52,10.14,2.3,8.17.47-.09-.7-8.41v-9.3Z"/>
        <path class="cls-1" d="M792.11,131.05c-.33,1.17-.99,1.6-1.88,1.6h-.7c-1.17,0-1.97-.75-1.88-2.16l.66-10.52c.09-1.22.89-1.74,1.92-1.74h3.43c1.55,0,2.21,1.17,1.83,2.58l-3.38,10.24Z"/>
        <path class="cls-1" d="M810.66,127.95v26.82c0,1.22-.71,1.93-1.93,1.93h-3.1c-1.22,0-1.93-.7-1.93-1.93v-26.82h-4.46c-1.22,0-1.93-.7-1.93-1.93v-1.41c0-1.22.7-1.93,1.93-1.93h15.88c1.22,0,1.92.7,1.92,1.93v1.41c0,1.22-.7,1.93-1.92,1.93h-4.46Z"/>
        <path class="cls-1" d="M836.68,151.43h6.81c1.22,0,1.93.7,1.93,1.93v1.41c0,1.22-.7,1.93-1.93,1.93h-11.83c-1.22,0-1.93-.7-1.93-1.93v-30.15c0-1.22.7-1.93,1.93-1.93h3.1c1.22,0,1.93.7,1.93,1.93v26.82Z"/>
        <path class="cls-1" d="M854.48,154.77c0,1.22-.71,1.93-1.93,1.93h-3.1c-1.22,0-1.93-.7-1.93-1.93v-30.15c0-1.22.7-1.93,1.93-1.93h3.1c1.22,0,1.93.7,1.93,1.93v30.15Z"/>
        <path class="cls-1" d="M865.18,136.97h.47l5.4-13.2c.28-.7.94-1.08,1.79-1.08h3.19c2.02,0,2.11,1.93,1.79,2.72l-6.06,14.28,6.06,14.28c.33.8.23,2.72-1.79,2.72h-3.19c-.85,0-1.5-.38-1.79-1.08l-5.4-13.2h-.47v12.35c0,1.22-.71,1.93-1.93,1.93h-3.1c-1.22,0-1.93-.7-1.93-1.93v-30.15c0-1.22.7-1.93,1.93-1.93h3.1c1.22,0,1.93.7,1.93,1.93v12.35Z"/>
        <path class="cls-1" d="M893.88,122.69c1.22,0,1.93.7,1.93,1.93v1.41c0,1.22-.7,1.93-1.93,1.93h-6.81v9.11h5.03c1.22,0,1.92.7,1.92,1.93v1.41c0,1.22-.7,1.93-1.92,1.93h-5.03v9.11h6.81c1.22,0,1.93.7,1.93,1.93v1.41c0,1.22-.7,1.93-1.93,1.93h-11.83c-1.22,0-1.93-.7-1.93-1.93v-30.15c0-1.22.7-1.93,1.93-1.93h11.83Z"/>
        <path class="cls-1" d="M922.71,122.69c1.22,0,1.93.7,1.93,1.93v1.41c0,1.22-.7,1.93-1.93,1.93h-6.81v9.11h5.03c1.22,0,1.92.7,1.92,1.93v1.41c0,1.22-.7,1.93-1.92,1.93h-5.03v12.45c0,1.22-.71,1.93-1.93,1.93h-3.1c-1.22,0-1.93-.7-1.93-1.93v-30.15c0-1.22.7-1.93,1.93-1.93h11.83Z"/>
        <path class="cls-1" d="M945.35,129.92v19.54c0,5.12-3.24,7.47-9.3,7.47s-9.3-2.35-9.3-7.47v-19.54c0-5.12,3.24-7.47,9.3-7.47s9.3,2.35,9.3,7.47ZM933.7,129.92v19.54c0,1.27.8,2.21,2.35,2.21s2.35-.94,2.35-2.21v-19.54c0-1.27-.8-2.21-2.35-2.21s-2.35.94-2.35,2.21Z"/>
        <path class="cls-1" d="M967.7,129.92v19.54c0,5.12-3.24,7.47-9.3,7.47s-9.3-2.35-9.3-7.47v-19.54c0-5.12,3.24-7.47,9.3-7.47s9.3,2.35,9.3,7.47ZM956.06,129.92v19.54c0,1.27.8,2.21,2.35,2.21s2.35-.94,2.35-2.21v-19.54c0-1.27-.8-2.21-2.35-2.21s-2.35.94-2.35,2.21Z"/>
        <path class="cls-1" d="M982.92,127.95v26.82c0,1.22-.71,1.93-1.93,1.93h-3.1c-1.22,0-1.93-.7-1.93-1.93v-26.82h-4.46c-1.22,0-1.93-.7-1.93-1.93v-1.41c0-1.22.7-1.93,1.93-1.93h15.88c1.22,0,1.92.7,1.92,1.93v1.41c0,1.22-.7,1.93-1.92,1.93h-4.46Z"/>
        <path class="cls-1" d="M993.11,156.69c-1.22,0-1.93-.7-1.93-1.93v-30.15c0-1.22.7-1.93,1.93-1.93h6.9c6.06,0,9.3,2.35,9.3,7.47v2.58c0,3.48-1.5,5.68-4.32,6.72v.47c2.82,1.08,4.32,3.29,4.32,6.72v2.58c0,5.12-3.24,7.47-9.3,7.47h-6.9ZM1000.02,137.06c1.55,0,2.35-.94,2.35-2.21v-4.7c0-1.27-.8-2.21-2.35-2.21h-1.88v9.11h1.88ZM1000.02,151.43c1.55,0,2.35-.94,2.35-2.21v-4.7c0-1.27-.8-2.21-2.35-2.21h-1.88v9.11h1.88Z"/>
        <path class="cls-1" d="M1024.86,155l-.56-4.7h-5.64l-.56,4.7c-.14,1.32-1.03,1.69-1.93,1.69h-2.82c-1.41,0-2.11-.99-1.88-2.4l4.51-29.78c.19-1.36.89-1.83,1.97-1.83h7.04c1.08,0,1.79.47,1.97,1.83l4.51,29.78c.23,1.41-.47,2.4-1.88,2.4h-2.82c-.89,0-1.79-.38-1.93-1.69ZM1019.27,145.05h4.37l-.61-5.35-1.32-12.54h-.47l-1.32,12.54-.66,5.35Z"/>
        <path class="cls-1" d="M1040.83,151.43h6.81c1.22,0,1.93.7,1.93,1.93v1.41c0,1.22-.7,1.93-1.93,1.93h-11.83c-1.22,0-1.93-.7-1.93-1.93v-30.15c0-1.22.7-1.93,1.93-1.93h3.1c1.22,0,1.93.7,1.93,1.93v26.82Z"/>
        <path class="cls-1" d="M1058.63,151.43h6.81c1.22,0,1.93.7,1.93,1.93v1.41c0,1.22-.7,1.93-1.93,1.93h-11.83c-1.22,0-1.93-.7-1.93-1.93v-30.15c0-1.22.7-1.93,1.93-1.93h3.1c1.22,0,1.93.7,1.93,1.93v26.82Z"/>
      </g>
    </g>
  </g>
</svg>